<svg xmlns="http://www.w3.org/2000/svg" width="400" height="110" viewBox="0 0 400 110"><rect x="1" y="1" width="398" height="108" rx="20" fill="#123b32" fill-opacity=".9" stroke="#96b4a0" stroke-opacity=".8" stroke-width="2"/><rect x="5" y="5" width="390" height="100" rx="17" fill="none" stroke="#eef4d5" stroke-opacity=".05"/><rect x="18" y="20" width="49" height="57" rx="10" fill="#ffffff" fill-opacity=".06" stroke="#96b4a0"/><g transform="translate(27 31) scale(0.46875)" fill="#fff7da" color="#fff7da"><rect x="13" y="5" width="38" height="50" rx="5" fill="none" stroke="currentColor" stroke-width="4"/><path d="M23 17h18M23 27h18M23 37h12m1 14 8 8 15-17" fill="none" stroke="currentColor" stroke-width="4" stroke-linecap="round"/></g><g transform="translate(86 78) scale(0.234375)" fill="#fff7da" color="#fff7da"><path d="M32 60S12 35 12 23a20 20 0 0 1 40 0C52 35 32 60 32 60" fill="#f2cb7f"/><circle cx="32" cy="23" r="8" fill="#284d41"/></g><path d="m370 46 8 9-8 9" fill="none" stroke="#a6bea8" stroke-width="3"/></svg>
