<svg xmlns="http://www.w3.org/2000/svg" width="380" height="128" viewBox="0 0 380 128"><rect x="1" y="1" width="378" height="126" rx="20" fill="#123b32" fill-opacity=".9" stroke="#96b4a0" stroke-opacity=".8" stroke-width="2"/><rect x="5" y="5" width="370" height="118" rx="17" fill="none" stroke="#eef4d5" stroke-opacity=".05"/><rect x="17" y="18" width="75" height="90" rx="20" fill="#497666" stroke="#a6bc99" stroke-width="2"/><path d="M24 84V46C24 10 85 10 85 46v38Z" fill="#3c3024"/><path d="M22 107q0-33 34-33 32 0 33 33" fill="#74a49a"/><path d="m45 76 10 15 11-15" fill="#e2b585"/><ellipse cx="55" cy="53" rx="22" ry="28" fill="#cfa579"/><path d="M32 43q0-30 29-23l19 24-17-13-14 9Z" fill="#49382a"/><ellipse cx="46" cy="52" rx="2.5" ry="3" fill="#302a24"/><ellipse cx="64" cy="52" rx="2.5" ry="3" fill="#302a24"/><path d="M48 65q7 5 14 0" fill="none" stroke="#8b5c48" stroke-width="2"/><g transform="translate(113 49) scale(0.296875)" fill="#fff7da" color="#fff7da"><path d="M32 54 9 31C-4 15 18 0 32 17 46 0 68 15 55 31Z" fill="#f26b72"/></g><g transform="translate(113 84) scale(0.296875)" fill="#86dec5" color="#86dec5"><circle cx="39" cy="10" r="7"/><path d="m12 29 12-10 15 4 8 12 11-4M31 24l-7 17 13 8 1 12M24 41 14 56 4 58" fill="none" stroke="currentColor" stroke-width="7" stroke-linecap="round" stroke-linejoin="round"/></g></svg>
